<svg width="24" height="24" viewBox="0 0 24 24" fill="none" xmlns="http://www.w3.org/2000/svg">
<path d="M17.54 24C16.3343 24 15.0646 23.6986 13.7522 23.1181C12.4718 22.5488 11.1808 21.7674 9.92174 20.8186C8.67337 19.8586 7.46768 18.787 6.32601 17.6149C5.19501 16.4205 4.17071 15.1591 3.26377 13.8642C2.34617 12.5247 1.60995 11.1851 1.08713 9.89023C0.532298 8.50605 0.254883 7.16651 0.254883 5.90512C0.254883 5.03442 0.40426 4.20837 0.692345 3.43814C0.9911 2.64558 1.47124 1.90884 2.1221 1.27256C2.94368 0.424186 3.88262 0 4.88558 0C5.30171 0 5.7285 0.100465 6.09127 0.27907C6.5074 0.48 6.8595 0.781395 7.11557 1.18326L9.59097 4.83349C9.81504 5.15721 9.98575 5.46977 10.1031 5.78233C10.2418 6.11721 10.3165 6.45209 10.3165 6.77581C10.3165 7.2 10.1992 7.61302 9.97509 8.00372C9.81504 8.30512 9.56963 8.62884 9.26021 8.95256L8.53466 9.74512C8.54533 9.7786 8.556 9.80093 8.56667 9.82326C8.69471 10.0577 8.95078 10.4595 9.4416 11.0623C9.96442 11.6874 10.4552 12.2567 10.946 12.7814C11.5756 13.4288 12.0984 13.9423 12.5892 14.3665C13.1974 14.9023 13.5922 15.1702 13.8269 15.293L13.8055 15.3488L14.5844 14.5451C14.9152 14.1991 15.2353 13.9423 15.5447 13.7749C16.1316 13.3953 16.8785 13.3284 17.6253 13.6521C17.9028 13.7749 18.2015 13.9423 18.5216 14.1767L22.064 16.8112C22.4588 17.0902 22.7469 17.4474 22.9176 17.8716C23.0776 18.2958 23.1523 18.6865 23.1523 19.0772C23.1523 19.613 23.0349 20.1488 22.8109 20.6512C22.5868 21.1535 22.3094 21.5888 21.9573 21.9907C21.3491 22.694 20.6876 23.1963 19.9194 23.52C19.1831 23.8326 18.3829 24 17.54 24ZM4.88558 1.67442C4.29874 1.67442 3.75458 1.94233 3.23176 2.47814C2.74095 2.95814 2.39952 3.48279 2.18612 4.05209C1.96205 4.63256 1.85536 5.24651 1.85536 5.90512C1.85536 6.94326 2.09009 8.0707 2.55956 9.23163C3.03971 10.4149 3.7119 11.6428 4.56549 12.8707C5.41907 14.0986 6.39003 15.293 7.45701 16.4205C8.52399 17.5256 9.67633 18.5526 10.8607 19.4567C12.013 20.3386 13.1974 21.053 14.371 21.5665C16.1956 22.3814 17.9028 22.5712 19.3112 21.9572C19.8553 21.7228 20.3355 21.3656 20.7729 20.8521C21.0183 20.573 21.2104 20.2716 21.3705 19.9144C21.4985 19.6353 21.5625 19.3451 21.5625 19.0549C21.5625 18.8763 21.5305 18.6977 21.4451 18.4967C21.4131 18.4298 21.3491 18.307 21.1464 18.1619L17.604 15.5274C17.3906 15.3712 17.1986 15.2595 17.0172 15.1814C16.7824 15.0809 16.6864 14.9805 16.3236 15.2149C16.1102 15.3265 15.9182 15.494 15.7048 15.7172L14.8939 16.5544C14.4777 16.9786 13.8376 17.0791 13.3467 16.8893L13.0587 16.7554C12.6212 16.5098 12.109 16.1302 11.5435 15.6279C11.0314 15.1702 10.4766 14.6344 9.80437 13.9423C9.28155 13.3842 8.75873 12.7926 8.21457 12.134C7.71308 11.52 7.35031 10.9953 7.12625 10.56L6.99821 10.2251C6.93419 9.96837 6.91285 9.82326 6.91285 9.66698C6.91285 9.26512 7.05156 8.90791 7.3183 8.62884L8.11854 7.75814C8.33193 7.53488 8.49198 7.32279 8.59868 7.13302C8.68404 6.98791 8.71605 6.86512 8.71605 6.75349C8.71605 6.66419 8.68404 6.53023 8.63069 6.39628C8.556 6.21767 8.43863 6.01674 8.28925 5.80465L5.81386 2.14326C5.70716 1.98698 5.57912 1.87535 5.41907 1.79721C5.24836 1.71907 5.06697 1.67442 4.88558 1.67442ZM13.8055 15.36L13.6348 16.1191L13.9229 15.3377C13.8696 15.3265 13.8269 15.3377 13.8055 15.36Z" fill="#324028"/>
</svg>
