<svg width="24" height="24" viewBox="0 0 24 24" fill="none" xmlns="http://www.w3.org/2000/svg">
<path d="M17.5405 24C16.3348 24 15.0651 23.6986 13.7527 23.1181C12.4723 22.5488 11.1813 21.7674 9.92223 20.8186C8.67386 19.8586 7.46817 18.787 6.3265 17.6149C5.1955 16.4205 4.17119 15.1591 3.26426 13.8642C2.34666 12.5247 1.61044 11.1851 1.08762 9.89023C0.532786 8.50605 0.255371 7.16651 0.255371 5.90512C0.255371 5.03442 0.404748 4.20837 0.692834 3.43814C0.991588 2.64558 1.47173 1.90884 2.12259 1.27256C2.94416 0.424186 3.88311 0 4.88607 0C5.30219 0 5.72899 0.100465 6.09176 0.27907C6.50788 0.48 6.85999 0.781395 7.11606 1.18326L9.59146 4.83349C9.81553 5.15721 9.98624 5.46977 10.1036 5.78233C10.2423 6.11721 10.317 6.45209 10.317 6.77581C10.317 7.2 10.1996 7.61302 9.97557 8.00372C9.81553 8.30512 9.57012 8.62884 9.2607 8.95256L8.53515 9.74512C8.54582 9.7786 8.55649 9.80093 8.56716 9.82326C8.6952 10.0577 8.95127 10.4595 9.44208 11.0623C9.9649 11.6874 10.4557 12.2567 10.9465 12.7814C11.576 13.4288 12.0989 13.9423 12.5897 14.3665C13.1979 14.9023 13.5926 15.1702 13.8274 15.293L13.806 15.3488L14.5849 14.5451C14.9157 14.1991 15.2358 13.9423 15.5452 13.7749C16.1321 13.3953 16.8789 13.3284 17.6258 13.6521C17.9032 13.7749 18.202 13.9423 18.5221 14.1767L22.0645 16.8112C22.4593 17.0902 22.7473 17.4474 22.9181 17.8716C23.0781 18.2958 23.1528 18.6865 23.1528 19.0772C23.1528 19.613 23.0354 20.1488 22.8114 20.6512C22.5873 21.1535 22.3099 21.5888 21.9578 21.9907C21.3496 22.694 20.6881 23.1963 19.9198 23.52C19.1836 23.8326 18.3834 24 17.5405 24ZM4.88607 1.67442C4.29923 1.67442 3.75507 1.94233 3.23225 2.47814C2.74144 2.95814 2.4 3.48279 2.18661 4.05209C1.96254 4.63256 1.85584 5.24651 1.85584 5.90512C1.85584 6.94326 2.09058 8.0707 2.56005 9.23163C3.04019 10.4149 3.71239 11.6428 4.56598 12.8707C5.41956 14.0986 6.39052 15.293 7.4575 16.4205C8.52448 17.5256 9.67682 18.5526 10.8612 19.4567C12.0135 20.3386 13.1979 21.053 14.3715 21.5665C16.1961 22.3814 17.9032 22.5712 19.3117 21.9572C19.8558 21.7228 20.336 21.3656 20.7734 20.8521C21.0188 20.573 21.2109 20.2716 21.3709 19.9144C21.499 19.6353 21.563 19.3451 21.563 19.0549C21.563 18.8763 21.531 18.6977 21.4456 18.4967C21.4136 18.4298 21.3496 18.307 21.1469 18.1619L17.6045 15.5274C17.3911 15.3712 17.199 15.2595 17.0177 15.1814C16.7829 15.0809 16.6869 14.9805 16.3241 15.2149C16.1107 15.3265 15.9187 15.494 15.7053 15.7172L14.8944 16.5544C14.4782 16.9786 13.838 17.0791 13.3472 16.8893L13.0592 16.7554C12.6217 16.5098 12.1095 16.1302 11.544 15.6279C11.0319 15.1702 10.4771 14.6344 9.80486 13.9423C9.28204 13.3842 8.75922 12.7926 8.21505 12.134C7.71357 11.52 7.3508 10.9953 7.12673 10.56L6.9987 10.2251C6.93468 9.96837 6.91334 9.82326 6.91334 9.66698C6.91334 9.26512 7.05204 8.90791 7.31879 8.62884L8.11903 7.75814C8.33242 7.53488 8.49247 7.32279 8.59917 7.13302C8.68453 6.98791 8.71654 6.86512 8.71654 6.75349C8.71654 6.66419 8.68453 6.53023 8.63118 6.39628C8.55649 6.21767 8.43912 6.01674 8.28974 5.80465L5.81435 2.14326C5.70765 1.98698 5.57961 1.87535 5.41956 1.79721C5.24885 1.71907 5.06746 1.67442 4.88607 1.67442ZM13.806 15.36L13.6353 16.1191L13.9234 15.3377C13.8701 15.3265 13.8274 15.3377 13.806 15.36Z" fill="white"/>
</svg>
