<svg width="25" height="24" viewBox="0 0 25 24" fill="none" xmlns="http://www.w3.org/2000/svg">
<path d="M15.9519 24H9.2717C3.22609 24 0.643066 21.4102 0.643066 15.3488V8.65116C0.643066 2.58977 3.22609 0 9.2717 0H15.9519C21.9975 0 24.5806 2.58977 24.5806 8.65116V15.3488C24.5806 21.4102 21.9975 24 15.9519 24ZM9.2717 1.67442C4.13905 1.67442 2.31312 3.50512 2.31312 8.65116V15.3488C2.31312 20.4949 4.13905 22.3256 9.2717 22.3256H15.9519C21.0846 22.3256 22.9105 20.4949 22.9105 15.3488V8.65116C22.9105 3.50512 21.0846 1.67442 15.9519 1.67442H9.2717Z" fill="#324028"/>
<path d="M12.6117 16.7442C10.0064 16.7442 7.87988 14.6121 7.87988 12C7.87988 9.38792 10.0064 7.25583 12.6117 7.25583C15.217 7.25583 17.3435 9.38792 17.3435 12C17.3435 14.6121 15.217 16.7442 12.6117 16.7442ZM12.6117 8.93025C10.9194 8.93025 9.54994 10.3033 9.54994 12C9.54994 13.6968 10.9194 15.0698 12.6117 15.0698C14.304 15.0698 15.6735 13.6968 15.6735 12C15.6735 10.3033 14.304 8.93025 12.6117 8.93025Z" fill="#324028"/>
<path d="M18.1788 6.97664C18.0341 6.97664 17.8893 6.94316 17.7557 6.88734C17.6221 6.83153 17.4996 6.75339 17.3883 6.65292C17.2881 6.5413 17.199 6.4185 17.1434 6.28455C17.0877 6.1506 17.0654 6.00548 17.0654 5.86037C17.0654 5.71525 17.0877 5.57013 17.1434 5.43618C17.2102 5.29106 17.2881 5.17943 17.3883 5.06781C17.444 5.02316 17.4996 4.96734 17.5553 4.93385C17.6221 4.8892 17.6889 4.85571 17.7557 4.83339C17.8225 4.7999 17.8893 4.77757 17.9673 4.76641C18.3235 4.68827 18.7021 4.81106 18.9693 5.06781C19.0695 5.17943 19.1474 5.29106 19.2031 5.43618C19.2588 5.57013 19.2922 5.71525 19.2922 5.86037C19.2922 6.00548 19.2588 6.1506 19.2031 6.28455C19.1474 6.4185 19.0695 6.5413 18.9693 6.65292C18.858 6.75339 18.7355 6.83153 18.6019 6.88734C18.4683 6.94316 18.3235 6.97664 18.1788 6.97664Z" fill="#324028"/>
</svg>
