<svg width="24" height="23" viewBox="0 0 24 23" fill="none" xmlns="http://www.w3.org/2000/svg">
<path d="M20.5233 21.2675C20.3099 21.2675 20.1072 21.1819 19.9578 21.0321L13.1503 14.2068C12.8409 13.8966 12.8409 13.3831 13.1503 13.0729L21.3982 4.80337C21.601 4.60011 21.9104 4.52523 22.1878 4.60011C22.4653 4.68569 22.6785 4.91035 22.7426 5.1885C22.9453 6.09782 23.0521 7.11412 23.0521 8.29089V14.7096C23.0521 17.673 22.4332 19.6735 21.0888 21.0321C20.9394 21.1819 20.7154 21.214 20.5233 21.2675ZM14.8467 13.6398L20.4593 19.267C21.1315 18.2293 21.4516 16.7529 21.4516 14.7096V8.29089C21.4516 7.85228 21.4408 7.44576 21.4088 7.06063L14.8467 13.6398Z" fill="white"/>
<path d="M5.46842 22.7117C5.4044 22.7117 5.35107 22.701 5.28705 22.6903C1.75526 21.8773 0.112061 19.3418 0.112061 14.7096V8.29089C0.112061 2.48192 2.58752 0 8.38136 0H14.7834C19.4035 0 21.9323 1.64749 22.7433 5.1885C22.8073 5.45595 22.7219 5.74479 22.5299 5.93735L6.03394 22.4763C5.88455 22.6261 5.68182 22.7117 5.46842 22.7117ZM8.38136 1.60469C3.46246 1.60469 1.71257 3.35915 1.71257 8.29089V14.7096C1.71257 18.4218 2.73691 20.2833 5.22303 21.0214L21.0681 5.135C20.3425 2.64239 18.4752 1.61538 14.7727 1.61538H8.38136V1.60469Z" fill="white"/>
<path d="M14.7839 23.0004H8.3818C7.2081 23.0004 6.20512 22.9042 5.2875 22.6902C4.9994 22.626 4.77531 22.4121 4.70062 22.1339C4.61526 21.8558 4.70062 21.5562 4.90335 21.3423L13.1514 13.0728C13.4608 12.7625 13.9729 12.7625 14.2824 13.0728L21.0899 19.898C21.2393 20.0478 21.3246 20.2511 21.3246 20.465C21.3246 20.679 21.2393 20.8823 21.0899 21.032C19.7348 22.38 17.7395 23.0004 14.7839 23.0004ZM7.15476 21.353C7.53888 21.3851 7.94433 21.3958 8.3818 21.3958H14.7839C16.8325 21.3958 18.2943 21.0748 19.3293 20.4008L13.7169 14.7737L7.15476 21.353Z" fill="white"/>
<path d="M8.50838 12.9017C7.83616 12.9017 7.16394 12.6557 6.63044 12.1529C4.9339 10.5375 4.25104 8.76166 4.65651 7.0286C5.06197 5.25274 6.60911 4.05457 8.50838 4.05457C10.4077 4.05457 11.9549 5.25274 12.3603 7.0286C12.7551 8.77236 12.0722 10.5375 10.3757 12.1529C9.85285 12.645 9.18059 12.9017 8.50838 12.9017ZM6.21432 7.38162C5.87288 8.83654 6.85452 10.1417 7.74013 10.9869C8.17761 11.404 8.84983 11.404 9.27663 10.9869C10.1516 10.1524 11.1333 8.84724 10.8025 7.38162C10.5144 6.10857 9.38332 5.64856 8.50838 5.64856C7.63343 5.64856 6.51309 6.10857 6.21432 7.38162Z" fill="white"/>
<path d="M8.54186 8.81534C7.95501 8.81534 7.47485 8.33393 7.47485 7.74554C7.47485 7.15716 7.94434 6.67575 8.54186 6.67575H8.55254C9.13939 6.67575 9.61955 7.15716 9.61955 7.74554C9.61955 8.33393 9.12871 8.81534 8.54186 8.81534Z" fill="white"/>
</svg>
