<svg width="24" height="23" viewBox="0 0 24 23" fill="none" xmlns="http://www.w3.org/2000/svg">
<path d="M20.5231 21.2675C20.3097 21.2675 20.1069 21.1819 19.9575 21.0321L13.15 14.2068C12.8406 13.8966 12.8406 13.3831 13.15 13.0729L21.398 4.80337C21.6007 4.60011 21.9102 4.52523 22.1876 4.60011C22.465 4.68569 22.6783 4.91035 22.7423 5.1885C22.9451 6.09782 23.0519 7.11412 23.0519 8.29089V14.7096C23.0519 17.673 22.433 19.6735 21.0886 21.0321C20.9392 21.1819 20.7151 21.214 20.5231 21.2675ZM14.8465 13.6398L20.459 19.267C21.1313 18.2293 21.4514 16.7529 21.4514 14.7096V8.29089C21.4514 7.85228 21.4406 7.44576 21.4086 7.06063L14.8465 13.6398Z" fill="#324028"/>
<path d="M5.46818 22.7117C5.40416 22.7117 5.35083 22.701 5.28681 22.6903C1.75502 21.8773 0.111816 19.3418 0.111816 14.7096V8.29089C0.111816 2.48192 2.58727 0 8.38112 0H14.7832C19.4033 0 21.9321 1.64749 22.743 5.1885C22.807 5.45595 22.7217 5.74479 22.5296 5.93735L6.03369 22.4763C5.88431 22.6261 5.68158 22.7117 5.46818 22.7117ZM8.38112 1.60469C3.46222 1.60469 1.71233 3.35915 1.71233 8.29089V14.7096C1.71233 18.4218 2.73666 20.2833 5.22279 21.0214L21.0678 5.135C20.3423 2.64239 18.475 1.61538 14.7725 1.61538H8.38112V1.60469Z" fill="#324028"/>
<path d="M14.7836 23.0004H8.38156C7.20785 23.0004 6.20488 22.9042 5.28725 22.6902C4.99916 22.626 4.77507 22.4121 4.70038 22.1339C4.61502 21.8558 4.70038 21.5562 4.90311 21.3423L13.1511 13.0728C13.4605 12.7625 13.9727 12.7625 14.2821 13.0728L21.0896 19.898C21.239 20.0478 21.3244 20.2511 21.3244 20.465C21.3244 20.679 21.239 20.8823 21.0896 21.032C19.7345 22.38 17.7392 23.0004 14.7836 23.0004ZM7.15451 21.353C7.53864 21.3851 7.94409 21.3958 8.38156 21.3958H14.7836C16.8323 21.3958 18.2941 21.0748 19.3291 20.4008L13.7166 14.7737L7.15451 21.353Z" fill="#324028"/>
<path d="M8.50813 12.9017C7.83592 12.9017 7.1637 12.6557 6.63019 12.1529C4.93365 10.5375 4.2508 8.76166 4.65626 7.0286C5.06172 5.25274 6.60886 4.05457 8.50813 4.05457C10.4074 4.05457 11.9546 5.25274 12.3601 7.0286C12.7549 8.77236 12.072 10.5375 10.3754 12.1529C9.85261 12.645 9.18035 12.9017 8.50813 12.9017ZM6.21408 7.38162C5.87264 8.83654 6.85427 10.1417 7.73989 10.9869C8.17736 11.404 8.84959 11.404 9.27639 10.9869C10.1514 10.1524 11.133 8.84724 10.8022 7.38162C10.5141 6.10857 9.38308 5.64856 8.50813 5.64856C7.63319 5.64856 6.51284 6.10857 6.21408 7.38162Z" fill="#324028"/>
<path d="M8.54162 8.81534C7.95476 8.81534 7.47461 8.33393 7.47461 7.74554C7.47461 7.15716 7.94409 6.67575 8.54162 6.67575H8.5523C9.13915 6.67575 9.6193 7.15716 9.6193 7.74554C9.6193 8.33393 9.12847 8.81534 8.54162 8.81534Z" fill="#324028"/>
</svg>
