<svg width="17" height="24" viewBox="0 0 17 24" fill="none" xmlns="http://www.w3.org/2000/svg">
<path d="M5.86534 19.823C4.20575 20.1097 3.08325 20.6563 3.08325 21.2813C3.08325 22.2017 5.50825 22.948 8.49992 22.948C11.4916 22.948 13.9166 22.2017 13.9166 21.2813C13.9166 20.6676 12.8391 20.1317 11.2345 19.8422" stroke="white" stroke-width="2" stroke-linecap="round" stroke-linejoin="round"/>
<path d="M8.5 1.28125C6.51088 1.28125 4.60322 2.07143 3.1967 3.47795C1.79018 4.88447 1 6.79213 1 8.78125C1 12.9233 6.41667 21.6979 8.5 21.6979C11 21.6979 16 12.9233 16 8.78125C16 6.79213 15.2098 4.88447 13.8033 3.47795C12.3968 2.07143 10.4891 1.28125 8.5 1.28125ZM8.5 14.6146C7.34628 14.6146 6.21846 14.2725 5.25917 13.6315C4.29989 12.9905 3.55221 12.0795 3.1107 11.0136C2.66919 9.94767 2.55367 8.77478 2.77875 7.64322C3.00383 6.51167 3.5594 5.47227 4.37521 4.65646C5.19102 3.84065 6.23042 3.28508 7.36197 3.06C8.49353 2.83492 9.66642 2.95044 10.7323 3.39195C11.7982 3.83346 12.7093 4.58114 13.3502 5.54042C13.9912 6.49971 14.3333 7.62753 14.3333 8.78125C14.3333 10.3283 13.7188 11.8121 12.6248 12.906C11.5308 14 10.0471 14.6146 8.5 14.6146Z" stroke="white" stroke-width="2" stroke-linecap="round" stroke-linejoin="round"/>
</svg>
