<svg width="18" height="24" viewBox="0 0 18 24" fill="none" xmlns="http://www.w3.org/2000/svg">
<path d="M6.68046 19.823C5.01742 20.1097 3.89258 20.6563 3.89258 21.2813C3.89258 22.2017 6.32263 22.948 9.32053 22.948C12.3184 22.948 14.7485 22.2017 14.7485 21.2813C14.7485 20.6676 13.6687 20.1317 12.0608 19.8422" stroke="#324028" stroke-width="2" stroke-linecap="round" stroke-linejoin="round"/>
<path d="M9.32031 1.28125C7.32704 1.28125 5.41542 2.07143 4.00596 3.47795C2.59651 4.88447 1.80469 6.79213 1.80469 8.78125C1.80469 12.9233 7.23264 21.6979 9.32031 21.6979C11.8255 21.6979 16.8359 12.9233 16.8359 8.78125C16.8359 6.79213 16.0441 4.88447 14.6347 3.47795C13.2252 2.07143 11.3136 1.28125 9.32031 1.28125ZM9.32031 14.6146C8.16418 14.6146 7.03402 14.2725 6.07273 13.6315C5.11145 12.9905 4.36222 12.0795 3.91979 11.0136C3.47736 9.94767 3.3616 8.77478 3.58715 7.64322C3.8127 6.51167 4.36942 5.47227 5.18693 4.65646C6.00444 3.84065 7.046 3.28508 8.17991 3.06C9.31383 2.83492 10.4892 2.95044 11.5573 3.39195C12.6254 3.83346 13.5383 4.58114 14.1807 5.54042C14.823 6.49971 15.1658 7.62753 15.1658 8.78125C15.1658 10.3283 14.5499 11.8121 13.4537 12.906C12.3575 14 10.8706 14.6146 9.32031 14.6146Z" stroke="#324028" stroke-width="2" stroke-linecap="round" stroke-linejoin="round"/>
</svg>
