<svg width="57" height="57" viewBox="0 0 57 57" fill="none" xmlns="http://www.w3.org/2000/svg">
<path d="M34.2 2.622V26.3055C34.2 29.2125 31.8345 31.578 28.9275 31.578H2.85C1.2825 31.578 0 30.2955 0 28.728V10.5165C0 4.7025 4.7025 0 10.5165 0H31.5495C33.0315 0 34.2 1.1685 34.2 2.622Z" fill="#324028"/>
<path d="M55.575 38.475C56.373 38.475 57 39.102 57 39.9V42.75C57 47.481 53.181 51.3 48.45 51.3C48.45 46.5975 44.6025 42.75 39.9 42.75C35.1975 42.75 31.35 46.5975 31.35 51.3H25.65C25.65 46.5975 21.8025 42.75 17.1 42.75C12.3975 42.75 8.55 46.5975 8.55 51.3C3.819 51.3 0 47.481 0 42.75V37.05C0 35.4825 1.2825 34.2 2.85 34.2H29.925C33.858 34.2 37.05 31.008 37.05 27.075V11.4C37.05 9.8325 38.3325 8.55 39.9 8.55H42.294C44.346 8.55 46.227 9.6615 47.253 11.4285L49.077 14.6205C49.3335 15.0765 48.9915 15.675 48.45 15.675C44.517 15.675 41.325 18.867 41.325 22.8V31.35C41.325 35.283 44.517 38.475 48.45 38.475H55.575Z" fill="#324028"/>
<path d="M17.0994 57C20.2474 57 22.7994 54.4481 22.7994 51.3C22.7994 48.1519 20.2474 45.6 17.0994 45.6C13.9514 45.6 11.3994 48.1519 11.3994 51.3C11.3994 54.4481 13.9514 57 17.0994 57Z" fill="#324028"/>
<path d="M39.9002 57C43.0483 57 45.6002 54.4481 45.6002 51.3C45.6002 48.1519 43.0483 45.6 39.9002 45.6C36.7521 45.6 34.2002 48.1519 34.2002 51.3C34.2002 54.4481 36.7521 57 39.9002 57Z" fill="#324028"/>
<path d="M56.9996 30.0105V34.2H48.4496C46.8821 34.2 45.5996 32.9175 45.5996 31.35V22.8C45.5996 21.2325 46.8821 19.95 48.4496 19.95H52.1261L56.2586 27.189C56.7431 28.044 56.9996 29.013 56.9996 30.0105Z" fill="#324028"/>
</svg>
