<svg width="56" height="57" viewBox="0 0 56 57" fill="none" xmlns="http://www.w3.org/2000/svg">
<path d="M43.246 16.0645C43.0511 16.0367 42.8562 16.0367 42.6613 16.0645C38.3459 15.9253 34.9214 12.3894 34.9214 8.04617C34.9214 3.61938 38.5129 0 42.9676 0C47.3943 0 51.0137 3.59154 51.0137 8.04617C50.9859 12.3894 47.5614 15.9253 43.246 16.0645Z" fill="#324028"/>
<path d="M52.3291 35.3597C49.2109 37.4478 44.8398 38.2274 40.8028 37.6984C41.8608 35.4154 42.4176 32.8818 42.4454 30.2091C42.4454 27.4249 41.8329 24.78 40.6636 22.4692C44.7841 21.9123 49.1552 22.6919 52.3013 24.78C56.7002 27.6755 56.7002 32.4364 52.3291 35.3597Z" fill="#324028"/>
<path d="M12.3732 16.0645C12.5681 16.0367 12.763 16.0367 12.9579 16.0645C17.2733 15.9253 20.6978 12.3894 20.6978 8.04617C20.6978 3.59154 17.1063 0 12.6516 0C8.22484 0 4.6333 3.59154 4.6333 8.04617C4.6333 12.3894 8.05779 15.9253 12.3732 16.0645Z" fill="#324028"/>
<path d="M12.6818 30.2096C12.6818 32.9102 13.2664 35.4716 14.3244 37.7825C10.3988 38.2001 6.30608 37.3648 3.29921 35.3881C-1.09974 32.4648 -1.09974 27.7039 3.29921 24.7805C6.27824 22.7759 10.4823 21.9685 14.4358 22.414C13.2943 24.7527 12.6818 27.3976 12.6818 30.2096Z" fill="#324028"/>
<path d="M28.1885 38.616C27.9657 38.5882 27.7152 38.5882 27.4646 38.616C22.3418 38.449 18.249 34.2449 18.249 29.0664C18.2769 23.7766 22.5367 19.489 27.8544 19.489C33.1442 19.489 37.4318 23.7766 37.4318 29.0664C37.404 34.2449 33.3391 38.449 28.1885 38.616Z" fill="#324028"/>
<path d="M19.1403 44.3808C14.9363 47.1928 14.9363 51.8145 19.1403 54.5986C23.9291 57.8004 31.7804 57.8004 36.5691 54.5986C40.7732 51.7867 40.7732 47.165 36.5691 44.3808C31.8082 41.1791 23.957 41.1791 19.1403 44.3808Z" fill="#324028"/>
</svg>
