<svg width="57" height="57" viewBox="0 0 57 57" fill="none" xmlns="http://www.w3.org/2000/svg">
<path d="M40.4415 0H16.5585C6.1845 0 0 6.1845 0 16.5585V40.413C0 50.8155 6.1845 57 16.5585 57H40.413C50.787 57 56.9715 50.8155 56.9715 40.4415V16.5585C57 6.1845 50.8155 0 40.4415 0ZM42.123 21.945L25.9635 38.1045C25.5645 38.5035 25.023 38.7315 24.453 38.7315C23.883 38.7315 23.3415 38.5035 22.9425 38.1045L14.877 30.039C14.0505 29.2125 14.0505 27.8445 14.877 27.018C15.7035 26.1915 17.0715 26.1915 17.898 27.018L24.453 33.573L39.102 18.924C39.9285 18.0975 41.2965 18.0975 42.123 18.924C42.9495 19.7505 42.9495 21.09 42.123 21.945Z" fill="#324028"/>
</svg>
