<svg width="58" height="58" viewBox="0 0 58 58" fill="none" xmlns="http://www.w3.org/2000/svg">
<path d="M36.7672 22.9824C35.0114 24.1492 33.4453 25.5124 32.0935 26.9129C31.8874 20.024 30.2322 11.1147 21.1038 6.7526C19.2976 -3.07357 -1.76497 1.91822 0.119123 2.87244C3.87433 4.77114 5.87202 9.60389 8.28839 12.1468C12.5937 16.6778 17.381 16.9569 19.7633 13.4094C25.3913 17.0672 25.7613 24.0048 25.5893 31.4211C25.5698 32.2406 25.5519 33.0033 25.5519 33.6963V56.4157C25.5519 58.2073 32.0432 58.2073 32.0432 56.4157V37.7695C32.9228 36.2214 35.4868 32.0816 39.2323 29.1783C41.8061 31.4389 45.954 30.7168 49.7206 26.7522C52.137 24.2093 53.4417 19.3781 57.1969 17.4778C59.1784 16.4749 36.4232 10.9963 36.7672 22.9824Z" fill="#324028"/>
</svg>
