<svg width="57" height="57" viewBox="0 0 57 57" fill="none" xmlns="http://www.w3.org/2000/svg">
<path d="M40.4415 0H16.5585C6.1845 0 0 6.1845 0 16.5585V40.413C0 50.8155 6.1845 57 16.5585 57H40.413C50.787 57 56.9715 50.8155 56.9715 40.4415V16.5585C57 6.1845 50.8155 0 40.4415 0ZM42.408 27.1605C42.408 28.272 41.5245 29.1555 40.413 29.1555C39.3015 29.1555 38.418 28.272 38.418 27.1605V26.6475L30.666 34.3995C30.2385 34.827 29.6685 35.0265 29.07 34.9695C28.4715 34.9125 27.93 34.599 27.6165 34.086L24.7095 29.754L17.9265 36.537C17.5275 36.936 17.043 37.107 16.53 37.107C16.017 37.107 15.504 36.9075 15.1335 36.537C14.364 35.7675 14.364 34.5135 15.1335 33.7155L23.6265 25.2225C24.054 24.795 24.624 24.5955 25.2225 24.6525C25.821 24.7095 26.3625 25.023 26.676 25.536L29.583 29.868L35.5965 23.8545H35.0835C33.972 23.8545 33.0885 22.971 33.0885 21.8595C33.0885 20.748 33.972 19.8645 35.0835 19.8645H40.3845C40.641 19.8645 40.8975 19.9215 41.154 20.007C41.6385 20.2065 42.0375 20.6055 42.237 21.09C42.351 21.3465 42.3795 21.603 42.3795 21.8595V27.1605H42.408Z" fill="#324028"/>
</svg>
