<svg width="96" height="112" viewBox="0 0 96 112" fill="none" xmlns="http://www.w3.org/2000/svg">
<path d="M36.5 15.5H45L59.5 12.5L68.5 21.5L75 30L88.5 39L93 52.5L91 74L82.5 89.5L68.5 96L63.5 107L55.5 109L48.5 107L42 109L33.5 107L29 96L15 89.5L6 78.5L2 59L6 43.5L15 34L26 27.5L29 21.5L36.5 15.5Z" fill="#F3ECA6" stroke="black"/>
<path d="M47.5444 15.6314L46.8411 15.5C46.8411 15.5 40.5523 13.6321 36.6667 14.5C29.4243 16.1177 24.8858 28.5 24.8858 28.5C24.8858 28.5 14.8851 33.0771 10.4274 38C1.76824 47.5628 1.22658 57.2483 4.00145 69.5C6.01468 78.3889 10.7634 87.6569 15.7823 90L28.6342 96C28.6342 96 30.9851 106.435 36.6667 108.5C41.4082 110.224 49.5185 106.5 49.5185 106.5M49.8011 15.3659L50.4741 15.2341C50.4741 15.2341 56.4916 13.36 60.2097 14.2308C67.1398 15.8538 71.4826 28.2773 71.4826 28.2773C71.4826 28.2773 81.052 32.8696 85.3175 37.8088C93.6032 47.4034 94.1215 57.121 91.4663 69.4134C89.5399 78.3318 84.996 87.6306 80.1934 89.9815L67.8958 96.0015C67.8958 96.0015 65.6462 106.471 60.2097 108.543C55.6727 110.272 47.9121 106.536 47.9121 106.536" stroke="#324028" stroke-width="5"/>
<path d="M54.8735 2H47.9121V24.3333L49.2508 24.5L50.5896 24L54.8735 2Z" fill="#324028"/>
<path d="M50.5896 24L54.8735 2H47.9121V24.3333M50.5896 24L47.9121 25V24.3333M50.5896 24L49.2508 24.5L47.9121 24.3333" stroke="#324028" stroke-width="4"/>
</svg>
