<svg width="116" height="108" viewBox="0 0 116 108" fill="none" xmlns="http://www.w3.org/2000/svg">
<path d="M47.5 23.5L58.5 31L68.5 23.5H90.5L101 27.5L109 39L113 55.5L109 75L99.5 93L84 105H72.5L61.5 99.5L47.5 105H33.5L19 93L8 77L3.5 61V46L12 31L15 26.5L24.5 23.5H33.5H47.5Z" fill="#83C16D" stroke="black"/>
<path d="M61 17L59.5 26L67 24L73.5 20L76 14.5L73.5 8.5L64 12L61 17Z" fill="#2EB744" stroke="black"/>
<path fill-rule="evenodd" clip-rule="evenodd" d="M57.0971 5.52872C55.7493 3.94646 53.9047 2.88347 52.1044 2.15014C50.2821 1.40786 48.3287 0.932499 46.5801 0.622917C44.822 0.311669 43.2064 0.156919 42.0334 0.0793831C41.4447 0.0404727 40.9621 0.0206614 40.6222 0.0105595C40.4521 0.00550477 40.3173 0.00287017 40.2225 0.00149642C40.1751 0.000809593 40.1376 0.000437386 40.1106 0.000235796L40.0781 4.34121e-05L40.0679 9.44535e-06L40.0644 2.08184e-06L40.063 0C40.0624 0 40.0618 0 40.0607 2.49999C40.0596 4.99999 40.0592 4.99999 40.0587 4.99999L40.0595 4.99999L40.0752 5.00009C40.0908 5.0002 40.1166 5.00045 40.152 5.00096C40.2229 5.00199 40.3322 5.00408 40.4756 5.00834C40.7625 5.01687 41.1843 5.03403 41.7055 5.06849C42.7524 5.13768 44.1791 5.27525 45.7103 5.54633C47.2509 5.81909 48.8338 6.21608 50.2197 6.7806C51.6275 7.35406 52.6629 8.03233 53.2915 8.77021C54.3668 10.0325 54.8219 11.1963 55.1187 12.5754C55.2743 13.2985 55.3819 14.0579 55.5123 14.9788L55.5123 14.9788L55.5198 15.032C55.65 15.9513 55.8 16.9981 56.0384 18.1356C56.5459 20.5567 56.8258 23.8064 56.9745 26.5368L56.9825 26.6861L46.6473 21.7243L46.2979 21.5565L45.9141 21.5024L45.566 23.9779C45.9141 21.5024 45.914 21.5024 45.9139 21.5024L45.9135 21.5023L45.9118 21.5021L45.9056 21.5012L45.8816 21.4978L45.7892 21.4849L45.4386 21.4361C45.1357 21.3942 44.7006 21.3344 44.1702 21.2627C43.1101 21.1194 41.6668 20.9282 40.1372 20.7373C37.1732 20.3673 33.6047 19.9604 32.0546 19.9677C29.2634 19.9808 21.7549 20.2985 15.8872 25.3633C10.0414 30.4092 5.64414 34.4132 2.83749 42.1997C-1.14799 53.2567 -0.655383 61.7158 2.96163 72.6766C6.28417 82.745 11.7015 90.0859 19.4018 97.2516C22.629 100.255 25.4981 102.644 28.767 104.398C32.0752 106.173 35.6658 107.231 40.289 107.778C45.152 108.354 50.7936 106.515 54.9179 104.774C57.0424 103.877 58.8897 102.951 60.2058 102.249C60.4879 102.099 60.7462 101.959 60.9782 101.831C61.1836 101.958 61.41 102.096 61.6555 102.243C62.8869 102.981 64.6169 103.951 66.6059 104.872C70.4221 106.64 75.8116 108.532 80.4851 107.559C86.1268 106.385 89.7392 104.011 93.9044 100.722C100.173 95.7709 103.386 92.1198 107.389 85.2766C112.26 76.9493 114.37 70.1208 115.158 60.5842C115.937 51.1502 114.05 45.7441 110.542 37.4016C108.813 33.2909 105.504 29.7303 102.811 27.2875C101.438 26.0423 100.167 25.0362 99.2366 24.3396C98.7706 23.9906 98.3878 23.7174 98.1175 23.5289C97.9823 23.4346 97.8751 23.3613 97.7995 23.3102C97.7616 23.2847 97.7317 23.2646 97.7101 23.2502L97.6841 23.2329L97.6758 23.2275L97.6729 23.2256L97.6718 23.2248C97.6713 23.2245 97.6709 23.2242 96.2992 25.3138L97.6709 23.2242L97.568 23.1567L97.459 23.0996L96.2992 25.3138C97.459 23.0996 97.4583 23.0992 97.4575 23.0988L97.4559 23.098L97.4523 23.0961L97.4435 23.0915L97.4192 23.079C97.4 23.0692 97.375 23.0565 97.3443 23.0412C97.2828 23.0106 97.1982 22.9693 97.0912 22.9188C96.8773 22.8179 96.5736 22.6804 96.1853 22.519C95.4093 22.1961 94.2933 21.7764 92.8807 21.3612C90.0576 20.5314 86.0327 19.715 81.161 19.7378C79.1991 19.747 77.4362 19.8743 75.7989 20.1198C76.0339 19.7494 76.2425 19.3602 76.4185 18.9515C77.409 16.651 77.3536 13.7111 77.1552 11.6187C77.0512 10.5212 76.8958 9.54923 76.7666 8.85153C76.7018 8.50155 76.6431 8.21769 76.5998 8.01819C76.5781 7.91838 76.5603 7.83948 76.5475 7.78377L76.5321 7.7178L76.5274 7.69834L76.5259 7.69209L76.5254 7.68984L76.5251 7.68893C76.5251 7.68854 76.525 7.68818 74.5816 8.16057L76.525 7.68818L76.0656 5.79834L74.1637 6.20472L74.5816 8.16057C74.1637 6.20472 74.1633 6.20479 74.1629 6.20487L74.162 6.20506L74.1597 6.20556L74.1529 6.20702L74.1311 6.21179L74.0549 6.22872C73.9901 6.2433 73.8978 6.26447 73.7808 6.29226C73.547 6.34781 73.2142 6.42997 72.8069 6.53891C71.9942 6.75624 70.8741 7.08292 69.6448 7.52124C67.2806 8.36419 64.1547 9.7405 62.2093 11.7802C61.5283 12.4942 60.9491 13.3337 60.4559 14.2301L60.4525 14.2063L60.4525 14.2062C60.3307 13.3453 60.2008 12.427 60.0068 11.5254C59.5793 9.53874 58.8282 7.56081 57.0971 5.52872ZM61.8039 23.7929C61.7903 23.6191 61.776 23.4442 61.7612 23.2685C61.8717 22.6019 62.0209 21.8204 62.2188 20.9897C62.8141 18.4914 63.76 15.95 65.1039 14.5409C66.3516 13.2327 68.6882 12.109 70.9882 11.2889C71.7192 11.0283 72.4106 10.8105 73.0084 10.6359C73.0691 11.051 73.1271 11.5105 73.1731 11.9961C73.3632 14.0015 73.3078 16.0616 72.7446 17.3697C72.3369 18.3166 71.4763 19.2635 70.201 20.1684C68.9421 21.0616 67.417 21.8163 65.8966 22.429C64.3852 23.038 62.9358 23.4838 61.8602 23.7775C61.8413 23.7827 61.8225 23.7878 61.8039 23.7929ZM44.8359 26.4002L57.1054 32.2906L57.9003 33.0557L62.1698 37.165L62.1357 31.5876C65.7213 29.3476 68.3414 27.7317 71.0283 26.6076C73.8981 25.407 76.8877 24.7579 81.1863 24.7377C85.4883 24.7176 89.0262 25.4392 91.4725 26.1582C92.6946 26.5174 93.6399 26.8747 94.2665 27.1353C94.5796 27.2656 94.8125 27.3714 94.9599 27.441C94.9904 27.4554 95.0173 27.4682 95.0404 27.4794C95.095 27.5165 95.1682 27.5667 95.2582 27.6295C95.4869 27.789 95.8237 28.0291 96.2401 28.3411C97.0749 28.9663 98.2201 29.8728 99.4527 30.9907C101.971 33.2742 104.631 36.2416 105.933 39.3383C109.328 47.4114 110.856 51.9284 110.175 60.1705C109.447 68.9766 107.559 75.0814 103.073 82.751C99.3943 89.0402 96.5982 92.2213 90.8044 96.7974C86.8915 99.888 84.0015 101.719 79.4644 102.664C76.5135 103.278 72.4436 102.067 68.7063 100.335C66.9187 99.5073 65.3485 98.6281 64.2239 97.9543C63.6633 97.6185 63.2176 97.3362 62.9158 97.1405C62.765 97.0427 62.6504 96.9667 62.5757 96.9166C62.5383 96.8915 62.5109 96.873 62.494 96.8615L62.4765 96.8495L62.4749 96.8485L62.4742 96.848L62.4738 96.8477L62.4737 96.8476L61.1412 95.9283L59.7579 96.7689L59.7577 96.769L59.7575 96.7691L59.7569 96.7695L59.7542 96.7711L59.7343 96.7831L59.7103 96.7974L59.6442 96.8367C59.5622 96.8852 59.4373 96.9584 59.2732 97.0525C58.945 97.2408 58.461 97.5124 57.8523 97.837C56.6321 98.4874 54.924 99.3435 52.972 100.167C48.9434 101.868 44.3481 103.224 40.8745 102.813C36.7362 102.323 33.7758 101.412 31.1296 99.992C28.444 98.5511 25.9553 96.5215 22.8072 93.5919C15.5614 86.8491 10.7065 80.1927 7.70972 71.1114C4.37556 61.0077 4.00212 53.7157 7.54134 43.8968C9.87542 37.4213 13.3755 34.1376 19.1551 29.1489C23.5761 25.3329 29.4747 24.9798 32.0799 24.9676C33.2279 24.9623 36.4088 25.3105 39.5197 25.6988C41.0275 25.887 42.453 26.0758 43.5023 26.2176C44.0267 26.2885 44.4564 26.3476 44.7548 26.3889L44.8359 26.4002Z" fill="#324028"/>
</svg>
