<svg width="139" height="122" viewBox="0 0 139 122" fill="none" xmlns="http://www.w3.org/2000/svg">
<ellipse cx="32.5" cy="36.5" rx="32.5" ry="36.5" transform="matrix(1.00013 -0.000511979 -0.000514176 0.999868 64.2915 32.9697)" fill="#DC783F"/>
<path d="M21.8895 89.5408L21.4403 87.6862L19.5319 87.6327C17.1559 87.5662 15.552 87.3421 14.0811 86.8062C12.7433 86.3189 11.3704 85.52 9.57186 84.1012C7.70248 78.416 7.02785 72.0645 7.86302 65.4881C9.2097 54.8838 14.0945 44.0524 21.3704 36.2713C28.6217 28.5163 38.0837 23.9349 48.7418 25.2769C59.223 26.5967 68.6726 34.3226 74.1028 45.0049C77.8143 52.3063 79.562 60.8448 78.4831 69.3406C77.1663 79.7089 71.0061 89.8266 62.7496 97.0754C54.4651 104.349 44.467 108.4 35.7148 107.298C34.7246 107.173 33.5857 107.029 32.6025 106.843C32.1105 106.75 31.7133 106.657 31.4252 106.568C31.3719 106.552 31.3277 106.537 31.2917 106.524C28.7021 103.784 26.9027 101.629 25.4888 99.2028C24.0368 96.711 22.9248 93.815 21.8895 89.5408Z" fill="#E88F5E" stroke="#324028" stroke-width="5"/>
<path fill-rule="evenodd" clip-rule="evenodd" d="M108.423 99.3531C118.156 94.4314 125.941 84.2813 127.499 72.0142C129.864 53.3883 117.104 35.9306 101.009 33.904C99.1768 33.6733 97.3564 33.6532 95.5661 33.8278C95.7715 34.071 95.9609 34.316 96.1356 34.5633C97.0161 35.8101 97.4555 37.0229 97.7269 38.1778C97.859 38.7398 97.9518 39.2912 98.0328 39.7983C98.0492 39.9005 98.0649 40.0003 98.0805 40.0985C98.1446 40.5048 98.2042 40.8817 98.2789 41.2724C98.4177 41.9976 98.5987 42.7095 98.9061 43.4537C99.1121 43.5394 99.3539 43.6422 99.6257 43.7614C100.525 44.156 101.762 44.7349 103.115 45.4743C105.749 46.9147 109.099 49.111 111.087 51.9267C112.809 54.3662 113.985 57.9598 114.721 60.7391C115.099 62.1671 115.38 63.4546 115.566 64.3854C115.659 64.8516 115.729 65.2303 115.776 65.4946C115.799 65.6269 115.817 65.7306 115.829 65.8026L115.843 65.8864L115.847 65.9097L115.848 65.9165L115.848 65.9187L115.848 65.9195C115.848 65.9198 115.848 65.9201 113.873 66.2371L115.848 65.9201L115.865 66.0247L115.871 66.1306C116.333 74.9687 115.74 81.5379 113.874 87.5634C112.616 91.625 110.798 95.3765 108.423 99.3531ZM102.212 101.698C105.951 96.0403 108.49 91.4267 110.052 86.3839C111.726 80.9824 112.318 74.9513 111.881 66.4548C111.871 66.3945 111.856 66.3079 111.837 66.1976C111.794 65.9583 111.73 65.608 111.643 65.1728C111.469 64.3009 111.206 63.0962 110.854 61.7664C110.129 59.0301 109.095 56.0455 107.817 54.235C106.382 52.2011 103.717 50.3641 101.192 48.9837C99.9649 48.3127 98.8363 47.7842 98.0152 47.4241C97.6057 47.2445 97.275 47.1077 97.0499 47.0171C96.9374 46.9718 96.8514 46.9381 96.7953 46.9164L96.7339 46.8928L96.7209 46.8878L96.72 46.8875L96.7195 46.8873L96.7191 46.8872L96.7189 46.8871L95.989 46.6143L95.6369 45.918C94.9147 44.4899 94.5718 43.1892 94.3496 42.0276C94.2615 41.5672 94.1897 41.1121 94.1249 40.7016C94.1104 40.6098 94.0963 40.5201 94.0824 40.4332C94.0035 39.9395 93.9293 39.5088 93.8324 39.0964C93.6458 38.3025 93.3792 37.5979 92.8668 36.8724C92.4328 36.2578 91.7778 35.5659 90.7356 34.7854C84.5219 36.6562 78.9178 40.8772 74.7847 46.6981C74.8722 52.9291 74.2413 58.5267 72.7159 63.8395C70.7951 70.5293 67.4862 76.6626 62.5696 82.9805C57.3736 89.6574 51.9538 94.8014 45.8056 98.0069C39.6165 101.234 32.8107 102.433 24.9801 101.41L25.5022 97.4442C32.5776 98.3682 38.5484 97.2819 43.9586 94.4611C49.4097 91.619 54.4121 86.9529 59.4131 80.5266C64.0813 74.5278 67.1176 68.8454 68.8707 62.7397C70.6261 56.626 71.1251 49.983 70.5857 42.0236L72.7974 41.8716C80.0393 32.7532 90.6155 27.5554 101.639 28.9435C119.852 31.2369 134.531 50.9106 131.782 72.5535C129.033 94.1964 109.899 109.613 91.6855 107.319C81.6195 106.052 73.2874 99.558 68.3112 90.3483C69.4003 89.0857 70.4137 87.7316 71.3407 86.2958C75.5854 95.0178 83.1497 101.205 92.3155 102.359C95.6315 102.776 98.9742 102.524 102.212 101.698Z" fill="#324028"/>
<path d="M27.7365 52.3671C33.4841 41.98 42.2382 42.7084 53.1194 40.9478C55.8875 51.4624 58.7052 58.2222 54.1265 67.2817C48.3584 78.6946 37.4677 77.5979 26.2999 77.3853C25.0157 67.3699 23.0998 60.7466 27.7365 52.3671Z" fill="#7A6255" stroke="#324028" stroke-width="4"/>
<path d="M73.1762 38.5848C73.2664 38.5961 73.3564 38.6017 73.4461 38.6031C73.1474 38.4483 72.8518 38.2909 72.5576 38.164C72.3098 38.0571 72.1621 37.85 71.9398 37.6997C71.5023 37.4039 72.1895 37.8464 72.3085 37.9421C72.62 38.1926 73.0223 38.3412 73.3735 38.5116C73.4345 38.5412 73.4949 38.5718 73.5551 38.6028C74.0416 38.8535 74.506 39.1353 75.0471 39.212C75.099 39.2172 75.2128 39.226 75.3344 39.2397C75.6157 39.2714 75.9393 39.3292 75.6397 39.4284C75.3394 39.5278 74.9381 39.3945 74.6384 39.3567C74.1816 39.2992 73.7199 39.2095 73.26 39.1832C72.9055 39.1629 73.8817 39.5698 74.2221 39.6744C74.4165 39.7342 75.115 39.9066 74.5402 39.8342L73.9574 39.7609C73.2788 39.6754 72.8565 38.8256 72.2575 38.529C71.9328 38.3682 71.9722 38.4332 72.2788 38.4718L73.1762 38.5848Z" fill="#DD0E0E"/>
<path d="M70.3585 35.3124C69.9023 35.0599 69.0953 34.6941 68.8222 34.1505C68.934 34.203 69.0452 34.2565 69.1552 34.3125C69.154 34.3103 69.1529 34.3081 69.1517 34.3058C69.0716 34.1515 68.8953 33.9618 68.6935 33.7821C68.6403 33.7562 68.5865 33.732 68.5318 33.7107C68.2987 33.6198 67.9566 33.5322 67.7941 33.3021C67.5535 32.9613 68.1997 33.3421 68.6935 33.7821C68.9801 33.9216 69.2493 34.1133 69.5494 34.209C70.0598 34.3716 70.4803 34.7368 70.9441 34.9942C72.0424 35.6039 73.2575 36.0472 74.4587 36.4605C74.6807 36.5083 74.9072 36.5492 75.1416 36.5787C76.1073 36.7003 77.07 36.8651 78.0289 37.0457C78.4414 37.1233 78.9497 37.1698 79.3421 37.3253C79.467 37.3748 79.64 37.439 79.4159 37.4108C79.0416 37.3637 78.6957 37.3511 78.3219 37.3656C77.5311 37.3962 76.595 37.2 75.8569 36.9409C75.3982 36.7799 74.9295 36.6225 74.4587 36.4605C73.9193 36.3443 73.4059 36.1868 72.8669 36.0499C73.081 36.1556 73.2919 36.2661 73.4995 36.3719C74.6451 36.9557 75.8886 37.3845 77.1021 37.7563C77.185 37.7817 78.6329 38.2195 78.5161 38.3535C78.4466 38.4331 78.1421 38.3185 78.0481 38.3381C77.6932 38.4119 77.3382 38.3249 76.9793 38.2797C76.0784 38.1663 75.1529 38.056 74.3005 37.7247C73.7423 37.5077 73.2533 37.1924 72.7208 36.9161C72.3219 36.7092 72.029 36.3112 71.6216 36.1354C71.1748 35.9427 70.7918 35.5521 70.3585 35.3124Z" fill="#DD0E0E"/>
<path d="M69.2903 34.3612C69.1791 34.3117 69.067 34.2681 68.9543 34.2322C68.6986 34.1507 68.4429 33.9877 68.2392 33.7938C68.0005 33.5665 67.7934 33.3791 67.546 33.2C67.2211 32.9856 66.9682 32.8158 67.3626 33.0738C67.4266 33.1157 67.4875 33.1576 67.546 33.2C67.7947 33.3641 68.0856 33.5543 68.1606 33.5988C68.5477 33.8283 68.9207 34.091 69.2903 34.3612Z" fill="#DD0E0E"/>
<path d="M65.1174 32.1324C67.3849 31.4099 46.0996 15.4992 44.3401 14.1392C79.9445 2.47608 90.3699 6.32023 93.1902 30.3699L85.2793 34.4136M75.2112 38.5471C74.177 38.4169 73.0721 38.1682 72.1523 37.6176C71.676 37.3325 71.2301 36.8924 70.7291 36.6873C70.4372 36.5679 69.9959 36.1768 69.7944 35.9055C70.2105 35.9579 70.5782 36.3793 70.933 36.5987C71.9782 37.245 73.0379 37.8066 74.141 38.3144M75.2112 38.5471L76.1455 38.6647M75.2112 38.5471L75.0909 38.532C74.5766 38.4672 74.0685 38.5927 73.5551 38.6028M73.5551 38.6028C73.5188 38.6035 73.4825 38.6036 73.4461 38.6031M73.5551 38.6028C73.4949 38.5718 73.4345 38.5412 73.3735 38.5116C73.0223 38.3412 72.62 38.1926 72.3085 37.9421C72.1895 37.8464 71.5023 37.4039 71.9398 37.6997C72.1621 37.85 72.3098 38.0571 72.5576 38.164C72.8518 38.2909 73.1474 38.4483 73.4461 38.6031M73.5551 38.6028C74.0416 38.8535 74.506 39.1353 75.0471 39.212M73.4461 38.6031C73.3564 38.6017 73.2664 38.5961 73.1762 38.5848L72.2788 38.4718C71.9722 38.4332 71.9328 38.3682 72.2575 38.529C72.8565 38.8256 73.2788 39.6754 73.9574 39.7609L74.5402 39.8342C75.115 39.9066 74.4165 39.7342 74.2221 39.6744C73.8817 39.5698 72.9055 39.1629 73.26 39.1832C73.7199 39.2095 74.1816 39.2992 74.6384 39.3567C74.9381 39.3945 75.3394 39.5278 75.6397 39.4284C75.9393 39.3292 75.6157 39.2714 75.3344 39.2397M73.4461 38.6031C73.9603 38.8695 74.4835 39.128 75.0237 39.2093C75.0287 39.2101 75.0366 39.211 75.0471 39.212M75.3344 39.2397C75.2128 39.226 75.099 39.2172 75.0471 39.212M75.3344 39.2397C75.236 39.2329 75.1486 39.225 75.0792 39.2163C75.0685 39.2149 75.0577 39.2135 75.0471 39.212M75.3344 39.2397C76.0097 39.2868 77.208 39.2884 76.7319 39.2285M91.7189 34.4533C91.4333 34.4896 91.0019 35.128 90.7947 35.3656C90.5858 35.605 90.3886 35.7435 90.1573 35.944C89.5303 36.4873 88.7536 36.8407 88.0309 37.1458C87.2422 37.4788 86.4496 37.7776 85.6201 37.9962C84.3371 38.3342 82.2027 37.6554 80.9257 37.8569M90.4454 34.4888C89.4339 35.3075 88.1726 36.151 87.0055 36.5976C86.5345 36.7778 86.092 36.9883 85.6185 37.1577C85.174 37.3167 83.7932 37.3742 84.249 37.4316C84.6391 37.4807 85.0404 37.4672 85.4342 37.4611C86.0986 37.4507 86.5129 36.9671 87.1025 36.8329C87.3656 36.773 87.5704 36.6222 87.8202 36.5096C88.2113 36.3335 88.6662 36.233 89.0319 35.9982C89.3779 35.7759 89.9339 35.4956 90.1747 35.1405C90.3693 34.8537 90.7006 34.7383 90.874 34.4448M70.3528 36.1717C72.0823 37.5161 74.4279 38.118 76.4723 38.6079M69.3561 35.3604C71.2754 36.4086 73.2617 37.5333 75.3557 38.0753M68.766 34.0123C68.7808 34.0596 68.7997 34.1057 68.8222 34.1505M68.8222 34.1505C69.0953 34.6941 69.9023 35.0599 70.3585 35.3124C70.7918 35.5521 71.1748 35.9427 71.6216 36.1354C72.029 36.3112 72.3219 36.7092 72.7208 36.9161C73.2533 37.1924 73.7423 37.5077 74.3005 37.7247C75.1529 38.056 76.0784 38.1663 76.9793 38.2797C77.3382 38.3249 77.6932 38.4119 78.0481 38.3381C78.1421 38.3185 78.4466 38.4331 78.5161 38.3535C78.6329 38.2195 77.185 37.7817 77.1021 37.7563C75.8886 37.3845 74.6451 36.9557 73.4995 36.3719C73.2919 36.2661 73.081 36.1556 72.8669 36.0499M68.8222 34.1505C68.934 34.203 69.0452 34.2565 69.1552 34.3125M68.8222 34.1505C68.3085 33.9091 67.7844 33.6884 67.3286 33.3415M72.8669 36.0499C72.3568 35.7981 71.8286 35.5737 71.2834 35.505C71.2061 35.4953 71.1174 35.4784 71.0207 35.4548M72.8669 36.0499C73.4059 36.1868 73.9193 36.3443 74.4587 36.4605M72.8669 36.0499C72.7324 36.0158 72.5963 35.9829 72.4578 35.9523C71.938 35.8373 71.4688 35.6737 71.0207 35.4548M71.0207 35.4548C70.3997 35.3034 69.4536 34.877 69.1552 34.3125M71.0207 35.4548C70.6234 35.2608 70.2428 35.0233 69.8582 34.7377C69.6361 34.5728 69.3988 34.4366 69.1552 34.3125M69.1552 34.3125C69.154 34.3103 69.1529 34.3081 69.1517 34.3058C69.0716 34.1515 68.8953 33.9618 68.6935 33.7821M68.6935 33.7821C68.1997 33.3421 67.5535 32.9613 67.7941 33.3021C67.9566 33.5322 68.2987 33.6198 68.5318 33.7107C68.5865 33.732 68.6403 33.7562 68.6935 33.7821ZM68.6935 33.7821C68.9801 33.9216 69.2493 34.1133 69.5494 34.209C70.0598 34.3716 70.4803 34.7368 70.9441 34.9942C72.0424 35.6039 73.2575 36.0472 74.4587 36.4605M74.4587 36.4605C74.9295 36.6225 75.3982 36.7799 75.8569 36.9409C76.595 37.2 77.5311 37.3962 78.3219 37.3656C78.6957 37.3511 79.0416 37.3637 79.4159 37.4108C79.64 37.439 79.467 37.3748 79.3421 37.3253C78.9497 37.1698 78.4414 37.1233 78.0289 37.0457C77.07 36.8651 76.1073 36.7003 75.1416 36.5787C74.9072 36.5492 74.6807 36.5083 74.4587 36.4605ZM67.9236 33.3186C68.3261 33.3693 68.756 33.8404 69.0936 34.0973C69.4707 34.3843 69.9259 34.5733 70.2807 34.889C70.4075 35.0018 71.2276 35.5815 70.6993 35.2194C70.2594 34.9178 69.7837 34.5811 69.2903 34.3612M69.2903 34.3612C69.1791 34.3117 69.067 34.2681 68.9543 34.2322C68.6986 34.1507 68.4429 33.9877 68.2392 33.7938C68.0005 33.5665 67.7934 33.3791 67.546 33.2M69.2903 34.3612C68.9207 34.091 68.5477 33.8283 68.1606 33.5988C68.0856 33.5543 67.7947 33.3641 67.546 33.2M69.2903 34.3612C69.9426 34.8382 70.5844 35.3386 71.2746 35.7218C71.7302 35.9747 72.3047 36.1514 72.6718 36.5618M67.546 33.2C67.4875 33.1576 67.4266 33.1157 67.3626 33.0738C66.9682 32.8158 67.2211 32.9856 67.546 33.2Z" stroke="#324028" stroke-width="5" stroke-linecap="round"/>
<path d="M71.8133 34.2298C80.9117 36.4713 90.9135 30.6031 91.7163 31.6961C92.5191 32.7892 89.6362 12.7609 81.2614 11.2284C71.9179 9.22071 58.7659 10.9404 49.8448 15.3362C57.1362 21.628 62.7148 31.9884 71.8133 34.2298Z" fill="#324028" stroke="#324028"/>
</svg>
