<svg width="135" height="109" viewBox="0 0 135 109" fill="none" xmlns="http://www.w3.org/2000/svg">
<path d="M9.5 30.5L18.5 38.5L43 49L59 38.5L61 19L49.5 8.5L38 3.5V8.5V17L24.5 14.5H14L3 19L9.5 30.5Z" fill="#324028" stroke="black"/>
<path d="M116.5 59L102.5 57H98.5L102.5 69.5L106.5 81L120.5 78.5L130 74V69.5L116.5 59Z" fill="#324028" stroke="black"/>
<path d="M104.048 40.5C104.048 55.8986 92.6613 68 79.0657 68C65.4702 68 54.0835 55.8986 54.0835 40.5C54.0835 25.1014 65.4702 13 79.0657 13C92.6613 13 104.048 25.1014 104.048 40.5Z" fill="#3D3283" stroke="#324028" stroke-width="5"/>
<path d="M59.7217 63.5C59.7217 80.0839 47.8653 93 33.8529 93C19.8405 93 7.98413 80.0839 7.98413 63.5C7.98413 46.9161 19.8405 34 33.8529 34C47.8653 34 59.7217 46.9161 59.7217 63.5Z" fill="#3D3283" stroke="#324028" stroke-width="5"/>
<path d="M103.605 75.9626C103.605 92.9406 92.0432 105.963 78.6225 105.963C65.0149 105.963 51.8672 92.7289 51.8672 75.9626C51.8672 59.1963 65.0149 45.9626 78.6225 45.9626C92.0432 45.9626 103.605 58.9847 103.605 75.9626Z" fill="#3D3283" stroke="#324028" stroke-width="5"/>
<path d="M19.6687 39C10.8758 33.7029 7.13136 27.9155 2.82471 19C16.056 13.3827 23.8301 12.9096 38.2857 16.5M44.9346 37.5C39.9034 26.0778 36.9623 16.2076 38.2857 3C50.1508 6.539 55.1861 12.0124 60.0055 21.5M102.115 56C115.501 56.8004 121.554 61.14 131.371 71.5C122.178 77.8474 116.641 80.3421 105.218 80.5" stroke="#324028" stroke-width="4"/>
</svg>
