<svg width="116" height="111" viewBox="0 0 116 111" fill="none" xmlns="http://www.w3.org/2000/svg">
<path fill-rule="evenodd" clip-rule="evenodd" d="M0.375732 83.8002C12.0028 99.9501 30.7878 110.45 52.0109 110.45C87.3677 110.45 115.958 81.3083 115.958 45.45C115.958 28.2588 109.387 12.6114 98.6488 0.97876L0.375732 83.8002ZM6.88601 84.0577L97.612 7.42546C105.95 17.7709 110.958 31.0084 110.958 45.45C110.958 78.6273 84.5266 105.45 52.0109 105.45C33.9162 105.45 17.7057 97.1434 6.88601 84.0577Z" fill="#324028"/>
<path d="M44.6958 48.9502L25.6765 88.4502C18.7672 87.2732 15.4313 85.4602 10.5586 79.9502M93.4632 8.4502C98.0213 14.9435 99.0934 18.6976 100.291 25.4502L60.7891 35.4502M97.8523 4.4502C109.387 32.2648 107.043 56.6402 89.0742 76.9502C67.5952 101.228 42.4214 104.265 6.65723 84.4502M49.0849 50.4502L33.4793 90.4502C43.5698 91.3439 49.2285 90.9755 59.326 88.4502L49.0849 50.4502ZM54.4493 47.4502L67.6165 85.9502C77.3825 79.8553 82.1491 75.9834 88.0988 67.4502L54.4493 47.4502ZM57.863 42.4502L92.0002 60.4502C97.0215 50.4515 99.0771 44.7227 99.3153 33.9502L57.863 42.4502Z" stroke="#324028" stroke-width="4"/>
</svg>
