<svg width="116" height="111" viewBox="0 0 116 111" fill="none" xmlns="http://www.w3.org/2000/svg">
<path d="M29 104L3.5 86.5H32L85 77.5L102.5 55L103.5 29.5L101 7L111.5 29.5L113.5 53L107 73.5L96 90L80 100L65.5 108L29 104Z" fill="#E1B646"/>
<path d="M98 4L5.5 82.5V83.5L14.5 89.5L29 94.5L46 97.5L67.5 93.5L85.5 81L98 66L104.5 45.5V23L98 4Z" fill="#F3ECA6"/>
<path fill-rule="evenodd" clip-rule="evenodd" d="M64.5 34.5L99.5 25L98 15L93 9L76.5 22L64.5 33V34.5ZM58.5 43L91.5 60.5L98 44.5L99.5 34.5L77.5 37.5L58.5 43ZM67 85L55 49L76.5 60.5L87 67L83.5 74L73.5 83.5L67 85ZM48 52.5L34 91H48L59 88L54 67.5L48 52.5ZM41 56L26 88.5L16 85L9.5 79.5L41 53.5V56Z" fill="#D9AE79"/>
<path fill-rule="evenodd" clip-rule="evenodd" d="M0.375732 83.8002C12.0028 99.95 30.7878 110.45 52.0109 110.45C87.3677 110.45 115.958 81.3083 115.958 45.45C115.958 28.2588 109.387 12.6114 98.6488 0.97876L0.375732 83.8002ZM6.88601 84.0577L97.612 7.42546C105.95 17.7709 110.958 31.0084 110.958 45.45C110.958 78.6273 84.5266 105.45 52.0109 105.45C33.9162 105.45 17.7057 97.1434 6.88601 84.0577Z" fill="#324028"/>
<path d="M44.6958 48.9502L25.6765 88.4502C18.7672 87.2732 15.4313 85.4602 10.5586 79.9502M93.4632 8.4502C98.0213 14.9435 99.0934 18.6976 100.291 25.4502L60.7891 35.4502M97.8523 4.4502C109.387 32.2648 107.043 56.6402 89.0742 76.9502C67.5952 101.228 42.4214 104.265 6.65723 84.4502M49.0849 50.4502L33.4793 90.4502C43.5698 91.3439 49.2285 90.9755 59.326 88.4502L49.0849 50.4502ZM54.4493 47.4502L67.6165 85.9502C77.3825 79.8553 82.1491 75.9834 88.0988 67.4502L54.4493 47.4502ZM57.863 42.4502L92.0002 60.4502C97.0215 50.4515 99.0771 44.7227 99.3153 33.9502L57.863 42.4502Z" stroke="#324028" stroke-width="4"/>
</svg>
