<svg width="118" height="113" viewBox="0 0 118 113" fill="none" xmlns="http://www.w3.org/2000/svg">
<path d="M18.905 35.5839C31.0491 26.5035 42.1954 28.4243 57.3056 30.3405C72.2821 28.4283 83.804 26.6798 95.8407 35.7412C107.565 44.5677 112.042 55.2005 111.817 69.9901C111.415 96.3661 83.106 110.873 56.3574 110.422C30.1822 109.98 3.19176 96.3356 2.78622 69.9044C2.55882 55.0839 7.07574 44.4288 18.905 35.5839Z" fill="#E2680F" stroke="#324028" stroke-width="4"/>
<path d="M80.5356 3.64706C70.795 7.87959 66.5783 14.2448 62.0464 23.6673C72.953 24.6732 79.6212 25.6542 90.0172 22.2373C100.316 18.8524 105.16 13.7725 113.247 6.98377C113.247 6.98377 92.3223 -1.47454 80.5356 3.64706Z" fill="#324028"/>
<path d="M57.7797 28.4341C58.1073 24.2991 58.0039 21.9937 56.3574 17.9473M58.7278 25.5739L62.0464 23.6673M62.0464 23.6673C66.5783 14.2448 70.795 7.87959 80.5356 3.64706C92.3223 -1.47454 113.247 6.98377 113.247 6.98377C105.16 13.7725 100.316 18.8524 90.0172 22.2373C79.6212 25.6542 72.953 24.6732 62.0464 23.6673Z" stroke="#324028" stroke-width="4"/>
</svg>
