<svg width="115" height="112" viewBox="0 0 115 112" fill="none" xmlns="http://www.w3.org/2000/svg">
<path d="M37.5 20.5L52 24.5L69 20.5L89.5 23L105.5 34L112.5 50.5L109.5 75.5L98.5 93L77.5 105.5L61 110H52L47.5 105.5L23 96.5L11.5 80.5L8 58L11.5 36.5L21 28.5L37.5 20.5Z" fill="#DC783F" stroke="black"/>
<path d="M76.0924 18.1268C71.076 18.1268 65.9031 19.0769 60.7894 21.0574C61.0393 18.6233 62.1766 18.4366 62.1766 13.2418C62.1766 10.9533 60.3333 9.66718 58.6103 9.58691C55.2578 5.10511 51.8785 5.01738 50.5639 5.19284C49.564 3.66593 47.0148 0.487049 42.9467 0.104389C23.9095 -1.67078 4.3095 19.7825 4.3095 19.7825C4.3095 19.7825 13.9034 16.2415 23.8809 16.6185C14.0217 28.6509 0.405518 35.5276 0.405518 35.5276C4.70448 33.9372 9.0664 32.0127 13.3215 29.4722C17.5842 26.9354 21.6332 23.8574 25.5791 20.5758C29.5308 17.3391 33.5512 13.8298 38.0238 11.0429C40.2448 9.65971 42.5155 8.47253 44.725 7.57654C46.9232 6.71415 49.0564 6.0739 51.0523 5.70617C46.8297 7.02215 42.4258 9.00079 38.2776 11.8138C34.1217 14.6156 30.2807 17.998 26.268 21.3206C22.2609 24.6264 17.9315 27.8893 13.4436 30.3309C11.2073 31.5572 8.9729 32.6026 6.78431 33.4836C4.60525 34.3161 2.46245 35.0292 0.405518 35.5276C0.405518 35.5276 4.41826 35.9326 10.341 35.41C7.01519 41.5176 5.08037 48.93 5.08037 57.259C5.08037 86.1303 22.259 101.728 43.0287 107.761C48.1711 109.256 48.0413 111.903 53.4184 111.998C53.5672 111.998 53.7199 112 53.8744 112C61.3198 112 73.8408 109.026 80.6012 106.566C99.6899 99.6167 114.892 84.4167 114.892 57.2571C114.89 34.0081 96.8277 18.1268 76.0924 18.1268ZM50.9397 7.10615C51.9644 7.00162 54.2637 7.17521 56.7747 10.0517C56.1202 10.4922 55.6738 11.2389 55.6738 12.3327C55.6738 16.7249 53.6168 18.6252 53.1722 20.8614C50.8501 19.8982 48.5527 19.1777 46.2897 18.683C49.6804 14.6642 50.6688 9.53651 50.9397 7.10615ZM78.6034 101.317C71.9995 103.721 60.2208 106.4 53.8744 106.4L53.5195 106.398C52.2163 106.374 52.0942 106.288 50.9016 105.461C49.5831 104.55 47.7742 103.298 44.6583 102.391C32.0152 98.7207 10.8047 87.9726 10.8047 57.2571C10.8047 48.4204 13.27 40.3939 17.7502 34.3404C25.1765 32.8527 33.8336 29.7765 41.3038 23.5662C45.5894 23.9488 49.9647 25.2928 54.3476 27.6056L56.1412 28.5538C59.6541 32.5932 62.3025 36.894 64.4529 41.2638C67.5479 47.8082 69.5056 54.5281 70.3318 61.2107C71.1389 67.8857 70.8146 74.5179 68.9942 80.8253C67.109 87.1103 63.5886 92.9958 57.8375 98.0077C65.8287 95.0621 71.677 89.2513 74.8502 82.6844C78.1283 76.0896 78.9946 68.7071 78.1073 61.3861C77.1819 54.0558 74.522 46.6751 69.9616 39.8432C67.1453 35.5873 63.4932 31.4154 59.0263 27.9826L59.6407 27.6784C64.9529 25.0576 70.4883 23.7286 76.0905 23.7286C94.9444 23.7286 109.164 38.1446 109.166 57.259C109.167 84.4783 92.5479 96.2418 78.6034 101.317Z" fill="#324028"/>
</svg>
