<svg width="71" height="112" viewBox="0 0 71 112" fill="none" xmlns="http://www.w3.org/2000/svg">
<path d="M43 5L36 14L36.5 15L41.5 17H50L61 12.5L62 11L66 3.5L58.5 1.5L43 5Z" fill="#324028" stroke="black"/>
<path d="M35.376 14.964C35.376 14.964 41.1416 6.14249 46.925 3.46397C54.0372 0.170043 67.0103 3.46397 67.0103 3.46397C67.0103 3.46397 61.5034 12.1019 55.9634 14.964C48.8184 18.6552 35.376 15.964 35.376 15.964" stroke="#324028" stroke-width="4"/>
<path d="M21.3163 31.4639C25.2249 26.5137 29.0531 23.3561 35.376 23.4639C41.6908 23.5715 45.1748 26.9958 49.1412 31.9171C54.1356 38.1139 52.708 51.8001 52.708 51.8001C59.7833 62.2975 67.599 65.6715 67.9944 77.151C68.59 94.4386 52.8431 109.235 34.8739 108.964C17.1274 108.696 2.15052 94.3532 2.73739 76.9639C3.12708 65.4169 10.8291 62.023 17.8014 51.4639C17.8014 51.4639 16.3945 37.6971 21.3163 31.4639Z" fill="#E1B646" stroke="#324028" stroke-width="5"/>
<path d="M24.3291 3.96387C34.6522 9.47123 36.3756 14.0305 35.8782 23.4639" stroke="#324028" stroke-width="4"/>
</svg>
