<svg width="121" height="112" viewBox="0 0 121 112" fill="none" xmlns="http://www.w3.org/2000/svg">
<path d="M43 20L60 17.5H75L88.5 20L102 24.5L114.5 37L118 56.5L114.5 79L109 93L102 100L97 101.5H91L86.5 104.5H79H71.5L58.5 108.5L50 104.5H38.5L33 101.5H26L15 95L5.5 79L3.5 64.5V49.5L11 33.5L22.5 22.5H31.5L43 20Z" fill="#E2680F" stroke="black"/>
<path d="M63.5 8.5V15L67.5 17L68.5 10.5V5.5L62.5 3.5H54.5L41 5.5L38.5 3.5L33 2L32 6.5L37 8.5L41 12L49.5 10.5L59.5 7.5L63.5 8.5Z" fill="#7A6255"/>
<path d="M78.9178 19.8335L68.1388 14.7172C68.1388 14.7172 70.0389 8.71507 68.1388 5.87984C66.3922 3.27377 63.9751 3.14015 60.9528 2.62396C56.9127 1.93394 50.6229 4.48446 50.6229 4.48446C50.6229 4.48446 44.8735 6.43215 41.1912 5.87984C37.9999 5.40116 35.8192 0.245091 33.5561 2.62396C32.1798 4.07061 29.3253 6.10555 32.6578 7.74034C35.9903 9.37512 38.6524 8.80954 41.1912 11.9265C43.73 15.0434 62.3001 4.48446 63.6475 8.67059C64.9949 12.8567 62.3001 13.3218 62.3001 13.3218L45.6825 18.9033" stroke="#324028" stroke-width="4"/>
<path d="M50.1736 20.2986C24.9056 55.2531 31.2904 81.0014 50.1737 103.556" stroke="#324028" stroke-width="4"/>
<path d="M61.4017 16.5776C56.5632 17.0297 54.0619 17.8328 50.1735 20.7638C43.3683 18.8799 39.7022 18.9743 33.5559 22.1591C33.5559 22.1591 25.6914 21.7613 21.4295 24.0196C5.21749 32.6102 2.45803 46.9778 3.01535 61.6948C3.60924 77.3778 13.3452 95.1839 18.7348 98.4398C24.1243 101.696 26.9335 101.668 31.3103 101.696C31.3103 101.696 35.5051 104.268 38.4963 104.952C42.9626 105.972 50.1735 104.021 50.1735 104.021C50.1735 104.021 57.5353 108.221 61.4017 108.673" stroke="#324028" stroke-width="5"/>
<path d="M33.5559 22.6243C9.6633 42.5917 9.62135 72.1411 30.8612 101.231" stroke="#324028" stroke-width="4"/>
<path d="M72.3584 20.2986C97.0158 55.2531 90.7853 81.0014 72.3584 103.556" stroke="#324028" stroke-width="4"/>
<path d="M60.0543 16.5776C66.0379 16.7398 68.5946 17.83 72.3585 20.7638C78.9993 18.8799 82.5768 18.9743 88.5746 22.1591C88.5746 22.1591 96.249 21.7613 100.408 24.0196C116.228 32.6102 118.921 46.9778 118.377 61.6948C117.798 77.3778 108.297 95.1839 103.038 98.4398C97.7782 101.696 95.0369 101.668 90.7659 101.696C90.7659 101.696 86.6725 104.268 83.7535 104.952C79.3952 105.972 72.3585 104.021 72.3585 104.021C71.0553 104.893 62.4483 109.06 60.0543 108.673" stroke="#324028" stroke-width="5"/>
<path d="M88.5745 22.6243C111.89 42.5917 111.931 72.1411 91.2041 101.231" stroke="#324028" stroke-width="4"/>
</svg>
