<svg width="108" height="113" viewBox="0 0 108 113" fill="none" xmlns="http://www.w3.org/2000/svg">
<path d="M5.5 24L15.5 37L65 49L89 43L96.5 32.5L102 19.5L87 26L74 30.5L76.5 26L79.5 17L76.5 7.5L69.5 17L62 24L56 29L58.5 19.5L65 12V7.5L58.5 3.5L52.5 7.5L48 20.5L49 29L44 24L29.5 7.5V22.5L31.5 30.5L15.5 26L5.5 19.5V24Z" fill="#324028" stroke="black"/>
<path d="M53.521 30.1492C65.8913 22.4512 71.0443 17.0499 77.6234 5.80882C80.4387 21.1512 78.4799 28.0822 66.0744 36.2343M73.554 30.1492C83.8602 27.417 91.4537 24.8464 101.224 19.8513C97.7797 28.5085 93.9066 36.3006 87.6661 42.7875M55.0274 31.5534C43.1155 24.694 37.4945 18.8771 28.9166 5.80882C26.0546 20.7184 28.7143 26.8355 38.9592 34.83M35.0967 31.5534C35.2684 32.7551 14.9524 26.52 4.81421 19.8513C8.20169 28.3087 10.3391 32.7682 16.3633 38.1066M50.0061 28.4733C45.4674 24.7082 51.965 3.05498 58.0403 3.00032C64.1156 2.94565 67.9875 9.7157 66.0744 10.0216C64.1612 10.3275 55.4341 21.5435 56.1543 28.4733" stroke="#324028" stroke-width="4"/>
<path d="M65.8341 101.766C65.8341 106.68 61.3599 111 55.4051 111C49.4503 111 44.9761 106.68 44.9761 101.766C44.9761 96.8516 49.4503 92.532 55.4051 92.532C61.3599 92.532 65.8341 96.8516 65.8341 101.766Z" fill="#CF2965" stroke="#324028" stroke-width="4"/>
<path d="M47.7575 91.4682C47.7575 96.3825 43.2832 100.702 37.3284 100.702C31.3736 100.702 26.8994 96.3825 26.8994 91.4682C26.8994 86.5538 31.3736 82.2341 37.3284 82.2341C43.2832 82.2341 47.7575 86.5538 47.7575 91.4682Z" fill="#CF2965" stroke="#324028" stroke-width="4"/>
<path d="M67.6439 91.4682C67.6439 96.3825 63.1697 100.702 57.2149 100.702C51.2601 100.702 46.7859 96.3825 46.7859 91.4682C46.7859 86.5538 51.2601 82.2341 57.2149 82.2341C63.1697 82.2341 67.6439 86.5538 67.6439 91.4682Z" fill="#CF2965" stroke="#324028" stroke-width="4"/>
<path d="M85.5416 91.4682C85.5416 96.3825 81.0674 100.702 75.1126 100.702C69.1578 100.702 64.6836 96.3825 64.6836 91.4682C64.6836 86.5538 69.1578 82.2341 75.1126 82.2341C81.0674 82.2341 85.5416 86.5538 85.5416 91.4682Z" fill="#CF2965" stroke="#324028" stroke-width="4"/>
<path d="M38.7191 77.4257C38.7191 82.3401 34.2449 86.6597 28.2901 86.6597C22.3353 86.6597 17.8611 82.3401 17.8611 77.4257C17.8611 72.5113 22.3353 68.1917 28.2901 68.1917C34.2449 68.1917 38.7191 72.5113 38.7191 77.4257Z" fill="#CF2965" stroke="#324028" stroke-width="4"/>
<path d="M58.6056 77.4257C58.6056 82.3401 54.1314 86.6597 48.1766 86.6597C42.2218 86.6597 37.7476 82.3401 37.7476 77.4257C37.7476 72.5113 42.2218 68.1917 48.1766 68.1917C54.1314 68.1917 58.6056 72.5113 58.6056 77.4257Z" fill="#CF2965" stroke="#324028" stroke-width="4"/>
<path d="M95.3954 77.4257C95.3954 82.3401 90.9212 86.6597 84.9664 86.6597C79.0116 86.6597 74.5374 82.3401 74.5374 77.4257C74.5374 72.5113 79.0116 68.1917 84.9664 68.1917C90.9212 68.1917 95.3954 72.5113 95.3954 77.4257Z" fill="#CF2965" stroke="#324028" stroke-width="4"/>
<path d="M76.5033 77.4257C76.5033 82.3401 72.0291 86.6597 66.0743 86.6597C60.1195 86.6597 55.6453 82.3401 55.6453 77.4257C55.6453 72.5113 60.1195 68.1917 66.0743 68.1917C72.0291 68.1917 76.5033 72.5113 76.5033 77.4257Z" fill="#CF2965" stroke="#324028" stroke-width="4"/>
<path d="M28.6764 63.3832C28.6764 68.2976 24.2022 72.6172 18.2474 72.6172C12.2926 72.6172 7.81836 68.2976 7.81836 63.3832C7.81836 58.4688 12.2926 54.1492 18.2474 54.1492C24.2022 54.1492 28.6764 58.4688 28.6764 63.3832Z" fill="#CF2965" stroke="#324028" stroke-width="4"/>
<path d="M48.5629 63.3832C48.5629 68.2976 44.0887 72.6172 38.1339 72.6172C32.1791 72.6172 27.7048 68.2976 27.7048 63.3832C27.7048 58.4688 32.1791 54.1492 38.1339 54.1492C44.0887 54.1492 48.5629 58.4688 48.5629 63.3832Z" fill="#CF2965" stroke="#324028" stroke-width="4"/>
<path d="M104.245 64.3192C104.245 69.2336 99.7705 73.5532 93.8157 73.5532C87.8609 73.5532 83.3867 69.2336 83.3867 64.3192C83.3867 59.4048 87.8609 55.0852 93.8157 55.0852C99.7705 55.0852 104.245 59.4048 104.245 64.3192Z" fill="#CF2965" stroke="#324028" stroke-width="4"/>
<path d="M85.3527 63.3832C85.3527 68.2976 80.8785 72.6172 74.9237 72.6172C68.9689 72.6172 64.4946 68.2976 64.4946 63.3832C64.4946 58.4688 68.9689 54.1492 74.9237 54.1492C80.8785 54.1492 85.3527 58.4688 85.3527 63.3832Z" fill="#CF2965" stroke="#324028" stroke-width="4"/>
<path d="M66.4606 63.3832C66.4606 68.2976 61.9864 72.6172 56.0316 72.6172C50.0768 72.6172 45.6025 68.2976 45.6025 63.3832C45.6025 58.4688 50.0768 54.1492 56.0316 54.1492C61.9864 54.1492 66.4606 58.4688 66.4606 63.3832Z" fill="#CF2965" stroke="#324028" stroke-width="4"/>
<path d="M28.925 48.4044C28.925 53.3012 24.4147 57.6384 18.3717 57.6384C12.3286 57.6384 7.81836 53.3012 7.81836 48.4044C7.81836 43.5077 12.3286 39.1704 18.3717 39.1704C24.4147 39.1704 28.925 43.5077 28.925 48.4044Z" fill="#CF2965" stroke="#324028" stroke-width="4"/>
<path d="M49.0102 48.4044C49.0102 53.3012 44.4999 57.6384 38.4569 57.6384C32.4138 57.6384 27.9036 53.3012 27.9036 48.4044C27.9036 43.5077 32.4138 39.1704 38.4569 39.1704C44.4999 39.1704 49.0102 43.5077 49.0102 48.4044Z" fill="#CF2965" stroke="#324028" stroke-width="4"/>
<path d="M105.249 49.3407C105.249 54.2375 100.739 58.5747 94.6959 58.5747C88.6528 58.5747 84.1426 54.2375 84.1426 49.3407C84.1426 44.444 88.6528 40.1067 94.6959 40.1067C100.739 40.1067 105.249 44.444 105.249 49.3407Z" fill="#CF2965" stroke="#324028" stroke-width="4"/>
<path d="M86.1682 48.4044C86.1682 53.3012 81.6579 57.6384 75.6148 57.6384C69.5718 57.6384 65.0615 53.3012 65.0615 48.4044C65.0615 43.5077 69.5718 39.1704 75.6148 39.1704C81.6579 39.1704 86.1682 43.5077 86.1682 48.4044Z" fill="#CF2965" stroke="#324028" stroke-width="4"/>
<path d="M67.0871 48.4044C67.0871 53.3012 62.5768 57.6384 56.5338 57.6384C50.4907 57.6384 45.9805 53.3012 45.9805 48.4044C45.9805 43.5077 50.4907 39.1704 56.5338 39.1704C62.5768 39.1704 67.0871 43.5077 67.0871 48.4044Z" fill="#CF2965" stroke="#324028" stroke-width="4"/>
</svg>
