<svg width="105" height="105" viewBox="0 0 105 105" fill="none" xmlns="http://www.w3.org/2000/svg">
<path d="M12.7717 72.3645C-1.99385 54.2406 1.1277 22.7268 23.3112 11.3525C43.9476 -7.5685 78.303 8.41001 92.1086 31.8525C105.995 55.4327 105.486 83.2739 86.0831 97.3645C68.458 110.164 32.2654 96.2918 12.7717 72.3645Z" fill="#5C2F89"/>
<path d="M81.5639 72.3645C68.2446 39.3937 55.7078 26.2631 23.3112 11.3525M23.3112 11.3525C1.1277 22.7268 -1.99385 54.2406 12.7717 72.3645C32.2654 96.2918 68.458 110.164 86.0831 97.3645C105.486 83.2739 105.995 55.4327 92.1086 31.8525C78.303 8.41001 43.9476 -7.5685 23.3112 11.3525ZM23.3112 11.3525C16.0372 6.01413 10.6967 2.16252 1.22266 6.35247" stroke="#324028" stroke-width="5"/>
</svg>
